<svg xmlns="http://www.w3.org/2000/svg" viewBox="0 0 128 128">
  <defs><linearGradient id="g" x2="0" y2="1"><stop stop-color="#85db69"/><stop offset="1" stop-color="#267a45"/></linearGradient></defs>
  <rect width="128" height="128" rx="28" fill="url(#g)"/>
  <path d="M24 102c14-19 22-34 41-54 15-16 25-19 43-24-10 17-16 29-32 43-17 15-31 24-52 35Z" fill="#bde86f" opacity=".55"/>
  <g stroke="#40351e" stroke-width="4">
    <ellipse cx="64" cy="69" rx="30" ry="36" fill="#f4c928"/>
    <path d="M35 59a30 30 0 0 1 58 0c-11 8-47 8-58 0Z" fill="#fff7df"/>
    <path d="M64 63v40" fill="none" opacity=".45"/>
  </g>
  <g fill="#5b351d"><circle cx="49" cy="75" r="5"/><circle cx="79" cy="75" r="5"/><circle cx="48" cy="94" r="5"/><circle cx="80" cy="94" r="5"/></g>
  <g fill="#fff" stroke="#40351e" stroke-width="2"><circle cx="53" cy="51" r="10"/><circle cx="75" cy="51" r="10"/></g>
  <g fill="#17221b"><circle cx="55" cy="49" r="5"/><circle cx="77" cy="49" r="5"/></g>
</svg>
